<svg width="40" height="40" viewBox="0 0 40 40" fill="none" xmlns="http://www.w3.org/2000/svg">
<path d="M20.0002 36.6666C29.2048 36.6666 36.6668 29.2046 36.6668 19.9999C36.6668 10.7952 29.2048 3.33325 20.0002 3.33325C10.7954 3.33325 3.3335 10.7952 3.3335 19.9999C3.3335 22.6661 3.95953 25.1859 5.0726 27.4207C5.3684 28.0146 5.46685 28.6934 5.29536 29.3342L4.30268 33.0444C3.87175 34.6549 5.34518 36.1282 6.95575 35.6974L10.6658 34.7047C11.3067 34.5332 11.9855 34.6317 12.5794 34.9274C14.8141 36.0406 17.334 36.6666 20.0002 36.6666Z" fill="white"/>
<path fill-rule="evenodd" clip-rule="evenodd" d="M21.7732 13.566C21.7732 12.7062 21.0763 12.0093 20.2166 12.0093C19.3568 12.0093 18.6599 12.7062 18.6599 13.566V18.236H13.9898C13.1301 18.236 12.4331 18.9329 12.4331 19.7927C12.4331 20.6524 13.1301 21.3493 13.9898 21.3493H18.6599V26.7978C18.6599 27.6575 19.3568 28.3545 20.2166 28.3545C21.0763 28.3545 21.7732 27.6575 21.7732 26.7978V21.3494H26.4433C27.303 21.3494 27.9999 20.6524 27.9999 19.7927C27.9999 18.9329 27.303 18.236 26.4433 18.236H21.7732V13.566Z" fill="#495DAC"/>
</svg>
