<svg width="21" height="24" viewBox="0 0 21 24" fill="none" xmlns="http://www.w3.org/2000/svg">
<path d="M7.60488 22.5H13.8726M17.0065 8.03333C17.0065 6.30059 16.3462 4.63881 15.1707 3.41357C13.9952 2.18833 12.4011 1.5 10.7387 1.5C9.07644 1.5 7.48222 2.18833 6.30679 3.41357C5.13137 4.63881 4.47101 6.30059 4.47101 8.03333C4.47101 11.1672 3.76465 13.3808 2.93277 14.901C2.12705 16.3734 1.7242 17.1096 1.73917 17.3009C1.756 17.5156 1.79396 17.5912 1.94933 17.7193C2.08763 17.8333 2.74491 17.8333 4.0595 17.8333H17.4181C18.7326 17.8333 19.3899 17.8333 19.5282 17.7193C19.6835 17.5912 19.7216 17.5156 19.7384 17.3009C19.7533 17.1096 19.3504 16.3734 18.5448 14.901C17.7128 13.3808 17.0065 11.1672 17.0065 8.03333Z" stroke="#495DAC" stroke-width="2" stroke-linecap="round" stroke-linejoin="round"/>
</svg>
