<svg width="22" height="22" viewBox="0 0 22 22" fill="none" xmlns="http://www.w3.org/2000/svg">
<path fill-rule="evenodd" clip-rule="evenodd" d="M0.862191 18.8241C0.276405 19.4099 0.276405 20.3596 0.862191 20.9454C1.44798 21.5312 2.39773 21.5312 2.98351 20.9454L11.2114 12.7175L19.4394 20.9454C20.0251 21.5312 20.9749 21.5312 21.5607 20.9454C22.1465 20.3597 22.1465 19.4099 21.5607 18.8241L13.3327 10.5962L21.3683 2.56066C21.9541 1.97487 21.9541 1.02513 21.3683 0.43934C20.7825 -0.146447 19.8328 -0.146446 19.247 0.43934L11.2114 8.47488L3.17589 0.43935C2.59011 -0.146436 1.64036 -0.146436 1.05457 0.43935C0.468788 1.02514 0.468788 1.97488 1.05457 2.56067L9.09011 10.5962L0.862191 18.8241Z" fill="#323543"/>
</svg>
