<svg width="26" height="18" viewBox="0 0 26 18" fill="none" xmlns="http://www.w3.org/2000/svg">
<path fill-rule="evenodd" clip-rule="evenodd" d="M13 0C18.6057 0 23.3525 3.64474 24.9494 8.67363C25.0169 8.88604 25.0169 9.11395 24.9494 9.32637C23.3526 14.3552 18.6057 18 13 18C7.39438 18 2.64748 14.3552 1.05059 9.32638C0.983136 9.11396 0.983136 8.88604 1.05059 8.67362C2.64748 3.64478 7.39437 0 13 0ZM13 15.8313C17.51 15.8313 21.3443 12.9774 22.7589 9C21.3443 5.02255 17.51 2.16867 13 2.16867C8.49004 2.16867 4.6557 5.02258 3.24105 9C4.6557 12.9774 8.49004 15.8313 13 15.8313ZM15.4 9C15.4 7.74235 14.3743 6.72289 13.1091 6.72289C11.8438 6.72289 10.8182 7.74234 10.8182 9C10.8182 10.2577 11.8438 11.2771 13.1091 11.2771C14.3743 11.2771 15.4 10.2576 15.4 9ZM13.1091 4.55422C15.5793 4.55422 17.5818 6.5446 17.5818 9C17.5818 11.4554 15.5793 13.4458 13.1091 13.4458C10.6388 13.4458 8.63636 11.4554 8.63636 9C8.63636 6.54461 10.6388 4.55422 13.1091 4.55422Z" fill="#A1A1A1"/>
<path d="M1 16L25 2" stroke="#A1A1A1" stroke-width="2" stroke-linecap="round"/>
</svg>
