<svg width="18" height="15" viewBox="0 0 18 15" fill="none" xmlns="http://www.w3.org/2000/svg">
<path fill-rule="evenodd" clip-rule="evenodd" d="M2.45455 2.34336H15.5455C15.9973 2.34336 16.3636 2.69477 16.3636 3.12826V12.5471C16.3636 12.9806 15.9973 13.332 15.5455 13.332H2.45455C2.00268 13.332 1.63636 12.9806 1.63636 12.5471V3.12826C1.63636 2.69477 2.00268 2.34336 2.45455 2.34336ZM0 3.12826C0 1.8278 1.09894 0.77356 2.45455 0.77356H15.5455C16.9011 0.77356 18 1.82779 18 3.12826V12.5471C18 13.8475 16.9011 14.9018 15.5455 14.9018H2.45455C1.09894 14.9018 0 13.8475 0 12.5471V3.12826ZM5.11238 3.94358C4.7684 3.66248 4.25201 3.70211 3.95898 4.0321C3.66596 4.36209 3.70727 4.85748 4.05126 5.13858L8.46944 8.74912C8.7752 8.99899 9.2248 8.99899 9.53056 8.74912L13.9487 5.13858C14.2927 4.85748 14.334 4.36209 14.041 4.0321C13.748 3.70211 13.2316 3.66248 12.8876 3.94358L9 7.12054L5.11238 3.94358Z" fill="#323543"/>
</svg>
