<svg width="24" height="18" viewBox="0 0 24 18" fill="none" xmlns="http://www.w3.org/2000/svg">
<path fill-rule="evenodd" clip-rule="evenodd" d="M12 0C17.6057 0 22.3525 3.64474 23.9494 8.67363C24.0169 8.88604 24.0169 9.11395 23.9494 9.32637C22.3526 14.3552 17.6057 18 12 18C6.39438 18 1.64748 14.3552 0.0505903 9.32638C-0.016864 9.11396 -0.016864 8.88604 0.0505903 8.67362C1.64748 3.64478 6.39437 0 12 0ZM12 15.8313C16.51 15.8313 20.3443 12.9774 21.7589 9C20.3443 5.02255 16.51 2.16867 12 2.16867C7.49004 2.16867 3.6557 5.02258 2.24105 9C3.6557 12.9774 7.49004 15.8313 12 15.8313ZM14.4 9C14.4 7.74235 13.3743 6.72289 12.1091 6.72289C10.8438 6.72289 9.81818 7.74234 9.81818 9C9.81818 10.2577 10.8438 11.2771 12.1091 11.2771C13.3743 11.2771 14.4 10.2576 14.4 9ZM12.1091 4.55422C14.5793 4.55422 16.5818 6.5446 16.5818 9C16.5818 11.4554 14.5793 13.4458 12.1091 13.4458C9.63883 13.4458 7.63636 11.4554 7.63636 9C7.63636 6.54461 9.63883 4.55422 12.1091 4.55422Z" fill="#A1A1A1"/>
</svg>
