<svg width="25" height="24" viewBox="0 0 25 24" fill="none" xmlns="http://www.w3.org/2000/svg">
<path fill-rule="evenodd" clip-rule="evenodd" d="M12.5 0C19.1276 0 24.5 5.50791 24.5 12.3035C24.5 17.7383 21.0656 22.3487 16.3004 23.9771C15.692 24.0983 15.476 23.7141 15.476 23.3865C15.476 22.9809 15.4904 21.6561 15.4904 20.0097C15.4904 18.8625 15.1064 18.1138 14.6756 17.7322C17.348 17.4274 20.156 16.3869 20.156 11.6613C20.156 10.3173 19.6904 9.22057 18.92 8.35897C19.0448 8.04817 19.4564 6.79674 18.8024 5.10234C18.8024 5.10234 17.7968 4.77266 15.506 6.36386C14.5472 6.09146 13.52 5.9544 12.5 5.9496C11.48 5.9544 10.454 6.09146 9.4964 6.36386C7.2032 4.77266 6.1952 5.10234 6.1952 5.10234C5.5436 6.79674 5.9552 8.04817 6.0788 8.35897C5.312 9.22057 4.8428 10.3173 4.8428 11.6613C4.8428 16.3749 7.6448 17.4314 10.31 17.7422C9.9668 18.0494 9.656 18.5913 9.548 19.3869C8.864 19.7013 7.1264 20.2454 6.056 18.365C6.056 18.365 5.4212 17.1829 4.2164 17.0965C4.2164 17.0965 3.0464 17.0809 4.1348 17.8441C4.1348 17.8441 4.9208 18.2221 5.4668 19.6441C5.4668 19.6441 6.1712 21.8401 9.5096 21.0961C9.5156 22.1245 9.5264 23.0937 9.5264 23.3865C9.5264 23.7117 9.3056 24.0923 8.7068 23.9783C3.938 22.3523 0.5 17.7395 0.5 12.3035C0.5 5.50791 5.8736 0 12.5 0Z" fill="white"/>
</svg>
