<svg width="25" height="24" viewBox="0 0 25 24" fill="none" xmlns="http://www.w3.org/2000/svg">
<path fill-rule="evenodd" clip-rule="evenodd" d="M5.67241 12.0003C5.67241 11.2208 5.80187 10.4735 6.03292 9.77263L1.98864 6.68427C1.20043 8.28463 0.756348 10.0879 0.756348 12.0003C0.756348 13.911 1.19989 15.7132 1.987 17.3124L6.0291 14.2181C5.80023 13.5204 5.67241 12.7759 5.67241 12.0003Z" fill="#FBBC05"/>
<path fill-rule="evenodd" clip-rule="evenodd" d="M12.7735 4.90909C14.4668 4.90909 15.9963 5.50909 17.198 6.49091L20.6939 3C18.5636 1.14545 15.8324 0 12.7735 0C8.02461 0 3.94318 2.71582 1.98877 6.684L6.03305 9.77237C6.96492 6.94364 9.62123 4.90909 12.7735 4.90909Z" fill="#EB4335"/>
<path fill-rule="evenodd" clip-rule="evenodd" d="M12.7735 19.0909C9.62123 19.0909 6.96492 17.0563 6.03305 14.2276L1.98877 17.3154C3.94318 21.2841 8.0246 24 12.7735 24C15.7046 24 18.5029 22.9592 20.6032 21.0092L16.7643 18.0414C15.6811 18.7238 14.3172 19.0909 12.7735 19.0909Z" fill="#34A853"/>
<path fill-rule="evenodd" clip-rule="evenodd" d="M24.2443 12C24.2443 11.2909 24.135 10.5273 23.9711 9.81818H12.7734V14.4545H19.2189C18.8967 16.0353 18.0194 17.2505 16.7642 18.0414L20.6031 21.0093C22.8093 18.9616 24.2443 15.9114 24.2443 12Z" fill="#4285F4"/>
</svg>
