<svg width="28" height="22" viewBox="0 0 28 22" fill="none" xmlns="http://www.w3.org/2000/svg">
<path fill-rule="evenodd" clip-rule="evenodd" d="M28 1.57143C28 1.9882 27.8361 2.3879 27.5444 2.6826C27.2527 2.9773 26.857 3.14286 26.4444 3.14286H1.55556C1.143 3.14286 0.747335 2.9773 0.455612 2.6826C0.163888 2.3879 0 1.9882 0 1.57143C0 1.15466 0.163888 0.754961 0.455612 0.460261C0.747335 0.165561 1.143 0 1.55556 0H26.4444C26.857 0 27.2527 0.165561 27.5444 0.460261C27.8361 0.754961 28 1.15466 28 1.57143ZM28 11C28 11.4168 27.8361 11.8165 27.5444 12.1112C27.2527 12.4059 26.857 12.5714 26.4444 12.5714H1.55556C1.143 12.5714 0.747335 12.4059 0.455612 12.1112C0.163888 11.8165 0 11.4168 0 11C0 10.5832 0.163888 10.1835 0.455612 9.88883C0.747335 9.59413 1.143 9.42857 1.55556 9.42857H26.4444C26.857 9.42857 27.2527 9.59413 27.5444 9.88883C27.8361 10.1835 28 10.5832 28 11ZM26.4444 22C26.857 22 27.2527 21.8344 27.5444 21.5397C27.8361 21.245 28 20.8453 28 20.4286C28 20.0118 27.8361 19.6121 27.5444 19.3174C27.2527 19.0227 26.857 18.8571 26.4444 18.8571H1.55556C1.143 18.8571 0.747335 19.0227 0.455612 19.3174C0.163888 19.6121 0 20.0118 0 20.4286C0 20.8453 0.163888 21.245 0.455612 21.5397C0.747335 21.8344 1.143 22 1.55556 22H26.4444Z" fill="#323543"/>
</svg>
