<svg width="28" height="18" viewBox="0 0 28 18" fill="none" xmlns="http://www.w3.org/2000/svg">
<rect x="0.98877" y="0.25" width="26.5" height="17.5" rx="0.75" stroke="#323543" stroke-width="0.5"/>
<path d="M4.99463 5.67303L7.50288 2.0223L4.99463 5.67303ZM5.92463 6.27464L8.43288 2.6239L5.92463 6.27464ZM6.85464 6.87624L9.36289 3.22551L6.85464 6.87624Z" fill="black"/>
<path fill-rule="evenodd" clip-rule="evenodd" d="M7.8134 2.22124L5.30312 5.87435L4.68262 5.47302L7.1929 1.81991L7.8134 2.22124ZM8.74416 2.82323L6.23388 6.47635L5.61337 6.07502L8.12365 2.4219L8.74416 2.82323ZM9.67492 3.42523L7.16464 7.07834L6.54413 6.67701L9.05441 3.0239L9.67492 3.42523Z" fill="black"/>
<path d="M18.7231 14.572L21.2314 10.9212L18.7231 14.572ZM19.6531 15.1736L22.1614 11.5228L19.6531 15.1736ZM20.5832 15.7752L23.0914 12.1244L20.5832 15.7752Z" fill="black"/>
<path fill-rule="evenodd" clip-rule="evenodd" d="M21.5419 11.1203L19.0316 14.7735L18.4111 14.3721L20.9214 10.719L21.5419 11.1203ZM22.4727 11.7223L19.9624 15.3755L19.3419 14.9741L21.8522 11.321L22.4727 11.7223ZM23.4034 12.3243L20.8932 15.9775L20.2726 15.5761L22.7829 11.923L23.4034 12.3243Z" fill="black"/>
<path fill-rule="evenodd" clip-rule="evenodd" d="M22.3612 14.511L19.2432 12.4914L19.4533 12.1852L22.5714 14.2048L22.3612 14.511Z" fill="white"/>
<path d="M17.7706 11.3099C19.1582 9.29068 18.6139 6.5742 16.555 5.2425C14.496 3.91081 11.7021 4.46818 10.3146 6.48744C8.92706 8.50669 9.47134 11.2232 11.5303 12.5549C13.5892 13.8866 16.3831 13.3292 17.7706 11.3099Z" fill="#CD2E3A"/>
<path d="M10.3164 6.48098C9.98301 6.96619 9.8598 7.55865 9.97387 8.12801C10.0879 8.69738 10.43 9.19702 10.9247 9.51701C11.4194 9.83701 12.0263 9.95115 12.6119 9.83432C13.1975 9.7175 13.7137 9.37928 14.0471 8.89407C14.3805 8.40886 14.8968 8.07064 15.4824 7.95382C16.0679 7.83699 16.6748 7.95113 17.1696 8.27113C17.6643 8.59112 18.0063 9.09076 18.1204 9.66013C18.2345 10.2295 18.1112 10.8219 17.7778 11.3072C17.111 12.2776 16.0785 12.954 14.9074 13.1877C13.7362 13.4213 12.5224 13.193 11.533 12.553C10.5435 11.913 9.85948 10.9138 9.63133 9.77504C9.40318 8.63631 9.64961 7.4514 10.3164 6.48098Z" fill="#0047A0"/>
<path d="M7.50342 15.7754L4.99517 12.1247L7.50342 15.7754ZM8.43342 15.1738L5.92517 11.5231L8.43342 15.1738ZM9.36343 14.5722L6.85518 10.9214L9.36343 14.5722Z" fill="black"/>
<path fill-rule="evenodd" clip-rule="evenodd" d="M5.30358 11.9231L7.81386 15.5762L7.19336 15.9775L4.68308 12.3244L5.30358 11.9231ZM6.23434 11.3211L8.74462 14.9742L8.12412 15.3755L5.61384 11.7224L6.23434 11.3211ZM7.1651 10.7191L9.67538 14.3722L9.05487 14.7735L6.54459 11.1204L7.1651 10.7191Z" fill="black"/>
<path d="M21.2319 6.87653L18.7237 3.22579L21.2319 6.87653ZM22.1619 6.27492L19.6537 2.62419L22.1619 6.27492ZM23.0919 5.67332L20.5837 2.02258L23.0919 5.67332Z" fill="black"/>
<path fill-rule="evenodd" clip-rule="evenodd" d="M19.0326 3.02429L21.5429 6.6774L20.9224 7.07874L18.4121 3.42562L19.0326 3.02429ZM19.9633 2.42229L22.4736 6.07541L21.8531 6.47674L19.3428 2.82362L19.9633 2.42229ZM20.8941 1.8203L23.4044 5.47341L22.7839 5.87474L20.2736 2.22163L20.8941 1.8203Z" fill="black"/>
<path fill-rule="evenodd" clip-rule="evenodd" d="M7.75331 13.1969L6.81738 13.8035L6.60714 13.4969L7.54306 12.8903L7.75331 13.1969ZM20.5443 4.9074L19.4523 5.61504L19.2421 5.30847L20.334 4.60083L20.5443 4.9074ZM22.4161 3.6943L21.4802 4.30085L21.2699 3.99428L22.2059 3.38773L22.4161 3.6943Z" fill="white"/>
</svg>
