<svg width="18" height="20" viewBox="0 0 18 20" fill="none" xmlns="http://www.w3.org/2000/svg">
<path d="M15 6.25C15 9.70178 12.3137 12.5 9 12.5C5.68629 12.5 3 9.70178 3 6.25C3 2.79822 5.68629 0 9 0C12.3137 0 15 2.79822 15 6.25Z" fill="white"/>
<path fill-rule="evenodd" clip-rule="evenodd" d="M9 10.4167C11.2091 10.4167 13 8.55119 13 6.25C13 3.94881 11.2091 2.08333 9 2.08333C6.79086 2.08333 5 3.94881 5 6.25C5 8.55119 6.79086 10.4167 9 10.4167ZM9 12.5C12.3137 12.5 15 9.70178 15 6.25C15 2.79822 12.3137 0 9 0C5.68629 0 3 2.79822 3 6.25C3 9.70178 5.68629 12.5 9 12.5Z" fill="#323543"/>
<path d="M0 8.54171C0 7.39111 0.895431 6.45837 2 6.45837H16C17.1046 6.45837 18 7.39111 18 8.54171V17.9167C18 19.0673 17.1046 20 16 20H2C0.89543 20 0 19.0673 0 17.9167V8.54171Z" fill="white"/>
<path fill-rule="evenodd" clip-rule="evenodd" d="M16 8.54171H2L2 17.9167H16V8.54171ZM2 6.45837C0.895431 6.45837 0 7.39111 0 8.54171V17.9167C0 19.0673 0.89543 20 2 20H16C17.1046 20 18 19.0673 18 17.9167V8.54171C18 7.39111 17.1046 6.45837 16 6.45837H2Z" fill="#323543"/>
</svg>
