<svg width="26" height="30" viewBox="0 0 26 30" fill="none" xmlns="http://www.w3.org/2000/svg">
<path d="M19.7523 11.3925C19.3525 11.2374 19.2339 11.0547 19.2722 10.6496C19.7222 5.70268 15.8525 1.00539 10.7521 0.630202C8.53475 0.451396 6.28838 0.480852 4.06221 0.574906C1.70579 0.674387 0.030117 2.47202 0.0133709 4.75955C-0.0116153 8.12174 0.0059282 11.4844 0.00672563 14.8466C-0.05574 17.399 2.08723 19.3341 4.67889 19.2326C8.62938 19.2553 12.5886 19.1809 16.5351 19.2677C17.6446 19.4716 17.5511 20.992 16.3956 21.0214C12.3882 21.0385 8.37952 21.008 4.37188 21.0333C-1.38427 21.1726 -1.43823 29.3266 4.38703 29.4886C6.47338 29.4819 8.55974 29.4874 10.6458 29.4874C10.6458 29.4912 10.6458 29.4948 10.6458 29.4987C12.4212 29.4987 14.1963 29.5023 15.9714 29.4974C17.3536 29.4938 18.6954 29.3093 19.9971 28.8065C28.1282 25.629 27.9523 14.3332 19.7523 11.3925ZM16.5641 28.8489C12.5379 28.8362 8.51189 28.8455 4.48565 28.844C2.25894 28.8432 0.682683 27.3564 0.652647 25.234C0.625002 23.2777 2.29563 21.6821 4.44445 21.6653C7.17114 21.6439 9.8981 21.6607 12.6251 21.6602C13.8877 21.6602 15.1508 21.6733 16.4131 21.6506C17.121 21.6379 17.6351 21.2842 17.8754 20.6305C18.3541 19.3313 17.2122 18.6486 16.0365 18.6083C12.2484 18.5757 8.46006 18.5861 4.67171 18.598C2.49871 18.7042 0.631382 17.13 0.651583 14.981C0.636964 11.5297 0.626597 8.07833 0.653976 4.62726C0.667798 2.86865 2.02716 1.32062 3.87906 1.21908C6.42899 1.07929 9.00444 0.919859 11.5437 1.35137C15.2829 1.9865 18.3785 5.41148 18.6101 9.09433C18.6486 9.70542 18.6154 10.3209 18.6154 10.9268C17.6646 10.9958 17.6103 10.9485 17.6284 10.1501C17.7302 5.6554 14.2337 2.21543 9.48237 2.15549C7.83567 2.13482 6.18843 2.15549 4.5412 2.15962C3.30996 2.16272 2.37457 2.65082 1.8892 3.78232C1.75311 4.09962 1.70579 4.47326 1.70446 4.82131C1.69144 8.1481 1.6917 11.4749 1.69941 14.8014C1.7034 16.5406 2.79402 17.5892 4.57815 17.5902C8.47627 17.5926 12.3744 17.5941 16.2723 17.5923C17.8214 17.5915 18.966 18.6512 19.0064 20.1346C19.0439 21.5144 17.8621 22.6511 16.314 22.6601C13.0201 22.679 9.72612 22.6658 6.43218 22.6715C5.64591 22.6728 4.85619 22.6568 4.0739 22.718C0.761364 23.0593 1.01734 27.7639 4.2722 27.8546C8.29818 27.8703 12.3252 27.9055 16.3504 27.8473C20.4274 27.7884 23.564 25.1637 24.2434 21.3689C24.8747 17.844 22.7158 14.1836 19.2581 12.9513C18.6279 12.7268 17.9681 12.5793 17.3156 12.3945C17.2701 11.5496 17.407 11.4294 18.2409 11.6033C22.0584 12.3986 24.9194 15.4595 25.3197 19.1765C25.9709 24.1908 21.7509 28.8416 16.5641 28.8489ZM16.5378 15.3358C14.617 15.3115 12.695 15.3389 10.7737 15.3301C8.77903 15.3296 6.78438 15.3324 4.78973 15.328C4.10447 15.3265 4.03456 15.2552 4.0343 14.5893C4.03244 11.4586 4.03244 8.32768 4.0343 5.19701C4.03456 4.50969 4.09118 4.45078 4.7706 4.44948C6.41756 4.44664 8.06506 4.42313 9.71123 4.45749C14.2962 4.39677 16.9953 9.74728 14.0945 13.2193C13.919 13.4464 13.729 13.904 13.3497 13.6025C13.0041 13.3278 13.4108 13.0686 13.5806 12.848C14.8042 11.2586 15.0011 9.53928 14.1194 7.77446C13.2572 6.04841 11.7689 5.12673 9.78061 5.07479C8.26283 5.03526 6.74292 5.07763 5.22434 5.05464C4.77591 5.04792 4.66906 5.21639 4.67092 5.62C4.68421 8.44835 4.68926 11.2767 4.66746 14.1051C4.66374 14.5924 4.84476 14.7025 5.30567 14.7006C8.92895 14.6872 12.5522 14.697 16.1755 14.6929C18.3427 14.6903 20.0688 15.5247 21.1858 17.3368C23.3731 20.8863 20.9574 25.3934 16.6999 25.5412C12.6609 25.6815 8.6129 25.5833 4.56885 25.5683C4.39846 25.5678 4.22887 25.349 4.05902 25.2319C4.26848 25.136 4.47767 24.9577 4.6874 24.9567C8.49355 24.9397 12.3 24.9417 16.1061 24.9448C17.2701 24.9459 18.3469 24.6981 19.3065 24.0175C23.1419 21.3168 21.198 15.4637 16.5378 15.3358ZM7.02787 9.85994C7.0284 9.16642 7.03637 8.4729 7.02468 7.77963C7.01936 7.46284 7.14482 7.33236 7.47656 7.3383C8.28117 7.35277 9.08817 7.31169 9.89039 7.35561C11.2984 7.43287 12.3436 8.63672 12.2803 10.053C12.2224 11.3516 11.0794 12.3919 9.70326 12.3966C8.97148 12.3992 8.2397 12.3868 7.50845 12.4041C7.15519 12.4123 7.01564 12.2855 7.02335 11.94C7.03876 11.2467 7.02787 10.5535 7.02787 9.85994Z" fill="#8B8B8B"/>
</svg>
