<svg width="26" height="8" viewBox="0 0 26 8" fill="none" xmlns="http://www.w3.org/2000/svg">
<path fill-rule="evenodd" clip-rule="evenodd" d="M6.5 4C6.5 5.79493 5.04493 7.25 3.25 7.25C1.45507 7.25 0 5.79493 0 4C0 2.20507 1.45507 0.75 3.25 0.75C5.04493 0.75 6.5 2.20507 6.5 4ZM16.25 4C16.25 5.79493 14.7949 7.25 13 7.25C11.2051 7.25 9.75 5.79493 9.75 4C9.75 2.20507 11.2051 0.75 13 0.75C14.7949 0.75 16.25 2.20507 16.25 4ZM22.75 7.25C24.5449 7.25 26 5.79493 26 4C26 2.20507 24.5449 0.75 22.75 0.75C20.9551 0.75 19.5 2.20507 19.5 4C19.5 5.79493 20.9551 7.25 22.75 7.25Z" fill="#D9D9D9"/>
</svg>
