<svg width="16" height="18" viewBox="0 0 16 18" fill="none" xmlns="http://www.w3.org/2000/svg">
<path fill-rule="evenodd" clip-rule="evenodd" d="M9.34014 2.38432C9.34014 1.52459 8.64319 0.827637 7.78346 0.827637C6.92373 0.827637 6.22677 1.52459 6.22677 2.38432V7.05434H1.55668C0.69695 7.05434 0 7.75129 0 8.61103C0 9.47076 0.69695 10.1677 1.55668 10.1677H6.22677V15.6161C6.22677 16.4759 6.92373 17.1728 7.78346 17.1728C8.64319 17.1728 9.34014 16.4759 9.34014 15.6161V10.1677H14.0102C14.8699 10.1677 15.5668 9.47076 15.5668 8.61103C15.5668 7.75129 14.8699 7.05434 14.0102 7.05434H9.34014V2.38432Z" fill="#323543"/>
</svg>
