<svg width="26" height="26" viewBox="0 0 26 26" fill="none" xmlns="http://www.w3.org/2000/svg">
<path d="M2.62162 13.25H2.87162V13C2.87162 7.4149 7.4153 2.8708 12.9998 2.87071C14.7775 2.87189 16.5236 3.34045 18.0631 4.22938C19.4757 5.04506 20.6688 6.18839 21.5433 7.56035H18.3514H18.1014V7.81035V9.43212V9.68212H18.3514H24.027H24.277V9.43212V3.75594V3.50594H24.027H22.4054H22.1554V3.75594V4.86148C20.6259 3.14075 18.6388 1.88212 16.4192 1.23689C13.9771 0.526983 11.3746 0.594816 8.97273 1.43098C6.5709 2.26715 4.48884 3.83018 3.0154 5.90324C1.54197 7.97629 0.750223 10.4566 0.75 13L0.749978 13.25H1H2.62162ZM23.3784 12.75H23.1284V13C23.1284 18.5851 18.5847 23.1292 13.0002 23.1293C11.2225 23.1281 9.4764 22.6596 7.93691 21.7706C6.5243 20.9549 5.33121 19.8116 4.45671 18.4396H7.64865H7.89865V18.1896V16.5679V16.3179H7.64865H1.97297H1.72297V16.5679V22.2441V22.4941H1.97297H3.59459H3.84459V22.2441V21.1385C5.3741 22.8592 7.3612 24.1179 9.58081 24.7631C12.0229 25.473 14.6254 25.4052 17.0273 24.569C19.4291 23.7329 21.5112 22.1698 22.9846 20.0968C24.458 18.0237 25.2498 15.5434 25.25 13L25.25 12.75H25H23.3784Z" fill="white" stroke="white" stroke-width="0.5"/>
</svg>
