<svg width="32" height="30" viewBox="0 0 32 30" fill="none" xmlns="http://www.w3.org/2000/svg">
<path d="M15.2115 15.0046H4.35535H15.2115ZM4.04763 16.4531L2.25405 21.9067C1.27172 24.8935 0.780557 26.3869 1.13304 27.3065C1.43913 28.1052 2.09656 28.7107 2.90779 28.9413C3.84194 29.2065 5.25287 28.5602 8.07473 27.2678L26.1655 18.9813C28.9198 17.7196 30.297 17.0889 30.7226 16.2126C31.0925 15.4512 31.0925 14.5578 30.7226 13.7965C30.297 12.9203 28.9198 12.2895 26.1655 11.0278L8.04352 2.72716C5.23016 1.43852 3.8235 0.794187 2.89028 1.05851C2.07981 1.28805 1.42245 1.89193 1.1153 2.68911C0.761599 3.60704 1.24752 5.09722 2.21937 8.07759L4.05111 13.6951C4.21802 14.207 4.30149 14.463 4.33443 14.7246C4.36367 14.957 4.36336 15.1921 4.33355 15.4244C4.29994 15.686 4.21584 15.9417 4.04763 16.4531Z" fill="#495DAC"/>
<path d="M15.2115 15.0046H4.35535M4.04763 16.4531L2.25405 21.9067C1.27172 24.8935 0.780557 26.3869 1.13304 27.3065C1.43913 28.1052 2.09656 28.7107 2.90779 28.9413C3.84194 29.2065 5.25287 28.5602 8.07473 27.2678L26.1655 18.9813C28.9198 17.7196 30.297 17.0889 30.7226 16.2126C31.0925 15.4512 31.0925 14.5578 30.7226 13.7965C30.297 12.9203 28.9198 12.2895 26.1655 11.0278L8.04352 2.72716C5.23016 1.43852 3.8235 0.794187 2.89028 1.05851C2.07981 1.28805 1.42245 1.89193 1.1153 2.68911C0.761599 3.60704 1.24752 5.09722 2.21937 8.07759L4.05111 13.6951C4.21802 14.207 4.30149 14.463 4.33443 14.7246C4.36367 14.957 4.36336 15.1921 4.33355 15.4244C4.29994 15.686 4.21584 15.9417 4.04763 16.4531Z" stroke="#BFC6E0" stroke-width="2" stroke-linecap="round" stroke-linejoin="round"/>
</svg>
