<svg width="11" height="11" viewBox="0 0 11 11" fill="none" xmlns="http://www.w3.org/2000/svg">
<path fill-rule="evenodd" clip-rule="evenodd" d="M9.21967 10.5303C9.51256 10.8232 9.98744 10.8232 10.2803 10.5303C10.5732 10.2374 10.5732 9.76256 10.2803 9.46967L6.31066 5.5L10.2803 1.53033C10.5732 1.23744 10.5732 0.762563 10.2803 0.46967C9.98744 0.176777 9.51256 0.176777 9.21967 0.46967L5.25 4.43934L1.28033 0.46967C0.987437 0.176777 0.512563 0.176777 0.21967 0.46967C-0.0732231 0.762563 -0.0732231 1.23744 0.21967 1.53033L4.18934 5.5L0.21967 9.46967C-0.0732233 9.76256 -0.0732233 10.2374 0.21967 10.5303C0.512563 10.8232 0.987437 10.8232 1.28033 10.5303L5.25 6.56066L9.21967 10.5303Z" fill="#888888"/>
</svg>
